/* XPM */
static char *out[] = {
/* columns rows colors chars-per-pixel */
"64 64 14 1 ",
"  c None",
". c black",
"X c #2B2B2D",
"o c #721B00",
"O c #B34218",
"+ c #D95500",
"@ c #F76100",
"# c #FF8434",
"$ c #EF913A",
"% c #F7F009",
"& c #FFC03D",
"* c #F7D452",
"= c #FFDC74",
"- c #040ABD",
/* pixels */
"                                                                ",
"                                                                ",
"                                                                ",
"                 OOO OO OO OOO                                  ",
"                 O##O##O##O##O                                  ",
"                 O###########O                                  ",
"                  O#########O                                   ",
"                   O#######O             ..                     ",
"                    O#####O             .XX.                    ",
"      ....          ooooooo             .XX.                    ",
"     .&===.       OO#######OO            ..                     ",
"    .&&$$&=.     O#########@@O            .....                 ",
"    .&$&&=&.    O#*##########@O          .-----.                ",
"    .&$&&=&.   O#*############@O        ..------..              ",
"    .$&==&&.  O#*######.#######@O       .-......-.              ",
"     .$$$&.  O#*######...#######@O      .--------.              ",
"      ....   O#*#####.###.######@O       ........               ",
"            O#*######.###.#######@O     .%%.%%.%%.              ",
"            O#*#######.##########@O     .%%.%%.%%.              ",
"           O+*#########.##########@O    .%%.%%.%%.              ",
"           O+*##########.#########@O    .%%.%%.%%.              ",
"           O+########.###.########@O    .%%.%%.%%.              ",
"           O+########.###.########+O    .%%.%%.%%.              ",
"            O+########...########+O      ........               ",
"            O+#########.#########+O     ..........              ",
"             O+#################+O                              ",
"             O+#################+O                              ",
"              O++#############++O                               ",
"               OO+++++++++++++OO                                ",
"                 OOOOOOOOOOOOO                                  ",
"                                                                ",
"                                                                ",
"                                                                ",
"                                                                ",
"                                                                ",
"                                                                ",
"                                                                ",
"                                                                ",
"                                                                ",
"                                                                ",
"                                                                ",
"                                                                ",
"                                                                ",
"                                                                ",
"                                                                ",
"                                                                ",
"                                                                ",
"                                                                ",
"                                                                ",
"                                                                ",
"                                                                ",
"                                                                ",
"                                                                ",
"                                                                ",
"                                                                ",
"                                                                ",
"                                                                ",
"                                                                ",
"                                                                ",
"                                                                ",
"                                                                ",
"                                                                ",
"                                                                ",
"                                                                "
};
