/* XPM */
static char *out[] = {
/* columns rows colors chars-per-pixel */
"64 64 155 2 ",
"   c None",
".  c #010101",
"X  c #0D0C0D",
"o  c #1E120F",
"O  c #141212",
"+  c #181414",
"@  c #181718",
"#  c #1C1B1C",
"$  c #22130F",
"%  c #2C1B16",
"&  c #241F1F",
"*  c #2A1C19",
"=  c #311C15",
"-  c #341F18",
";  c #2B211F",
":  c #36211B",
">  c #3A2119",
",  c #201F20",
"<  c #242324",
"1  c #2C2424",
"2  c #292628",
"3  c #2D2B2C",
"4  c #3E2720",
"5  c #352926",
"6  c #3E2921",
"7  c #312D2D",
"8  c #3B2D2A",
"9  c #3E312F",
"0  c #302F30",
"q  c #343334",
"w  c #3A3535",
"e  c #3B3837",
"r  c #383638",
"t  c #3C3A3B",
"y  c #40271F",
"u  c #47281F",
"i  c #422A22",
"p  c #482F26",
"a  c #522F24",
"s  c #47332E",
"d  c #493028",
"f  c #543126",
"g  c #53342B",
"h  c #59352A",
"j  c #57392F",
"k  c #4F3E39",
"l  c #503730",
"z  c #643E25",
"x  c #643F2D",
"c  c #623D32",
"v  c #734C2D",
"b  c #784F2A",
"n  c #654134",
"m  c #684337",
"M  c #6B4539",
"N  c #6E493D",
"B  c #754D33",
"V  c #724B3D",
"C  c #775034",
"Z  c #7B5235",
"A  c #77503D",
"S  c #7B533A",
"D  c #413F40",
"F  c #444344",
"G  c #484748",
"H  c #4C4A4B",
"J  c #524847",
"K  c #514D4D",
"L  c #53504F",
"P  c #514F51",
"I  c #555455",
"U  c #5A5454",
"Y  c #595759",
"T  c #5C5B5C",
"R  c #6F4C40",
"E  c #744E41",
"W  c #62504D",
"Q  c #7C5446",
"!  c #70544C",
"~  c #7D5549",
"^  c #7F594D",
"/  c #625351",
"(  c #6B5855",
")  c #7E5F56",
"_  c #725E59",
"`  c #7F6057",
"'  c #72615D",
"]  c #7E625B",
"[  c #605E60",
"{  c #646364",
"}  c #686464",
"|  c #696769",
" . c #6C6B6C",
".. c #796966",
"X. c #7C6D6C",
"o. c #716E71",
"O. c #747374",
"+. c #7C7372",
"@. c #787778",
"#. c #7D7C7D",
"$. c #885D2B",
"%. c #885D33",
"&. c #865C3D",
"*. c #8B5F3C",
"=. c #92663C",
"-. c #805642",
";. c #855B44",
":. c #805749",
">. c #845A4D",
",. c #875D50",
"<. c #895E51",
"1. c #8D6242",
"2. c #92674E",
"3. c #9D6F4B",
"4. c #816057",
"5. c #8C6254",
"6. c #83635A",
"7. c #8A675D",
"8. c #8F6A5E",
"9. c #916557",
"0. c #9C6F56",
"q. c #926759",
"w. c #95695B",
"e. c #9B6D5E",
"r. c #A3705E",
"t. c #826A64",
"y. c #976D60",
"u. c #9C6F61",
"i. c #967065",
"p. c #9E7062",
"a. c #937268",
"s. c #867672",
"d. c #8F7D71",
"f. c #8D7B78",
"g. c #A27263",
"h. c #AB7665",
"j. c #A1796C",
"k. c #91837A",
"l. c #A58075",
"z. c #807F80",
"x. c #848384",
"c. c #898789",
"v. c #8C8B8C",
"b. c #9D8784",
"n. c #918E91",
"m. c #939293",
"M. c #999699",
"N. c #9C9C9C",
"B. c #A09FA0",
"V. c #A3A2A3",
"C. c #A8A7A8",
"Z. c #ACAAAC",
"A. c #B8A3A0",
"S. c #B1AFB1",
"D. c #B4B1B4",
/* pixels */
"                                                                                                                                ",
"                                                                                                                                ",
"                                                                                                                                ",
"                                                          D I F < G I Y F                                                       ",
"                                                    0 @.X F m.[ r c.z.v. .< G #                                                 ",
"                                                X { D.M.} < D D < r t D t 2 x.v.2 O                                             ",
"                                            ,  .F c.x.Y < o = % % = = = * w  .Y H t D ,                                         ",
"                                          [ n.Z.F 3 w 1 g E 5.>.E <.5.<.E i 1 w # T c.H 3                                       ",
"                                        2  .z.I 7 % y n w.u.u.5.:.e.u.u.q.V N p o } } P 0 0                                     ",
"                                      { O.t q : s E Q ^ e.u.u.5.:.u.h.u.q.Q w.9.R > 5 2 0 z.[                                   ",
"                                    t  .o.q : 4.w.e.>.>.5.Q e.5.:.e.h.u.9.Q e.u.y.c ~ s [ @.[ F                                 ",
"                                  . Z. .e i f u.u.u.>.^ 5.b 0.5.:.u.h.u.q.Q r.r.u.m u.^ 6 3 3 < X                               ",
"                                  I C.c.w j c u.u.p.>.>.,.b 0.5.:.e.h.u.q.Q r.p.u.m u.q.d + M.n.[                               ",
"                                D Y q Y w m n u.g.r.>.>.<.b 0.5.:.e.h.u.q.Q e.u.u.m u.q.g J @. .D X                             ",
"                                #.S.T 2 g ,.n p.h.g.>.>.5.&.e.<.:.e.p.u.q.Q w.u.u.m u.q.M - q 3 H r                             ",
"                              t v.#.Y 5 R u.n u.h.g.>.>.e.w.p.5.:.e.u.u.q.Q w.u.u.m u.q.Q c , } x.Y ,                           ",
"                              t Y t < p 5.u.m u.h.g.>.>.e.u.u.5.>.w.u.p.q.Q w.u.u.m u.q.Q 5.> e t 0 O                           ",
"                              o.M.z.K p q.p.m u.h.g.,.>.e.u.u.5.Q e.u.V q.Q q.u.u.m 5.Q Q e.> Y v.@.t                           ",
"                              v.Z.c.q p q.u.m p.u.u.>.>.y.u.u.5.:.e.u.n =.Q w.u.u.m <.v S w.> | B.z.0                           ",
"                              T @.H 2 p q.p.m e.u.u.>.>.e.u.u.<.~ w.u.n =.Q q.u.u.m <.v Z w.- F  .I #                           ",
"                              I | T w p q.p.m u.u.u.>.>.e.g.u.<.>.w.y.n =.Q w.p.u.m <.B S e.- G O.T 3                           ",
"                              @.B.v.D p q.p.m u.u.u.>.>.g.h.u.5.Q e.u.n =.~ q.p.u.m <.v S i.k O.C.x.q                           ",
"                              2 w 2 + p q.u.m u.u.u.>.>.g.h.u.5.Q w.u.n =.~ q.u.u.m u.f.x.+.H 2 r 2 O                           ",
"                              n.D.N.Y p q.u.m u.u.u.>.>.g.h.u.5.>.0.r.n =.~ q.u.u.n _ T Y [ t | #.O.F                           ",
"                              #.B.m.e p 9.w.n u.u.u.>.>.g.h.e.5.Q e.p.n =.Q w.u.u.n } [ T | D G { @.q                           ",
"                              I O.I 3 p 5.-.n e.u.u.>.>.g.h.u.5.^ w.e.n =.Q q.u.u.n 6.( W U s 0 H I ,                           ",
"                              { O.| e p 5.b z u.u.u.>.>.p.h.e.5.:.e.e.n 2.Q w.p.u.m p.q.Q <.5 Y @.{ 3                           ",
"                              x.S.N.t p ,.C z u.e.0.>.>.u.g.u.5.:.w.p.n q.Q w.e.p.n p.q.Q w.- | C.v.t                           ",
"                              Y #.L 3 p 1.S z p.0.3.>.>.e.p.u.5.~ e.p.w.q.Q q.p.u.n p.q.Q w.: G O.I <                           ",
"                              q 3 G e p 5.5.n p.0.3.>.>.e.e.y.5.^ w.u.u.q.Q q.p.p.m u.q.Q w.> D  .T 2                           ",
"                              Y | M.{ p q.p.m y.e.3.5.>.u.u.u.5.:.w.u.u.q.Q w.u.p.m g.e.Q q.>  .Z.B.H                           ",
"                              I x.m.H p q.p.m p.0.3.>.>.e.u.u.5.~ e.u.p.q.~ q.u.e.m g.0.Q w.> [ B.c.t                           ",
"                              F Y G & p q.u.m u.u.e.>.>.e.u.e.5.>.w.u.u.9.Q w.p.u.m g.0.~ w.> r I w #                           ",
"                               .v.#.K p q.u.m u.p.u.>.:.e.u.u.5.>.w.u.p.9.Q q.p.u.m g.r.Q w.- I T o.r                           ",
"                              x.V.N.K p q.p.M u.u.u.>.>.y.u.u.5.Q e.g.p.q.Q w.u.u.m g.e.Q w.- { o. .q                           ",
"                              O.z.{ w p w.i.R y.y.e.) ~ u.u.u.5.:.w.h.g.q.Q q.u.u.M g.e.Q q.- / #.G <                           ",
"                              H H D 3 p q.l.b.X..._ U W y.u.u.5.^ e.h.g.q.Q w.p.u.m u.q.Q w.> F T F <                           ",
"                               .#.O.e p q.u.m A.j.u.4.4.y.u.u.5.~ e.h.g.9.Q q.p.p.m u.q.Q q.> I #. .3                           ",
"                              #.N.@.e d q.p.n f.e.u.6.6.y.u.e.5.>.w.h.g.9.Q w.u.p.n p.q.Q q.: { B.@.0                           ",
"                              G P q < d q.u.m 7.] ] ! ^ e.u.u.5.:.w.h.g.9.Q w.u.p.n p.q.Q w.> w I q @                           ",
"                               .m.#.H p q.u.m u.8.7.^ >.e.u.u.5.:.e.h.g.q.Q w.u.u.m u.q.Q q.> Y v.O.t                           ",
"                              n.D.M.I p w.u.m u.u.u.>.>.e.u.u.5.:.w.h.g.q.Q w.Q ;.m u.q.Q w.> T N.m.F                           ",
"                              #.B.@.q d r.g.m u.u.u.>.>.e.u.u.5.Q e.h.g.q.Q w.Q $.m u.q.Q q.: T M.O.3                           ",
"                              { f.P 0 d 0.g.m u.e.e.>.>.y.u.u.5.^ e.h.g.9.Q q.Q $.m u.w.Q w.> P z.Y <                           ",
"                              G G 3 0 p r.g.m u.w.:.>.>.e.u.e.5.Q e.p.p.9.Q w.Q $.m p.q.Q w.> D [ G <                           ",
"                              [ P { ( p e.g.m u.5.C &.>.e.u.u.5.Q e.u.u.q.Q q.Q $.m p.q.Q q.> | N.n.G                           ",
"                              I  .v.U p r.g.m u.q.C &.^ ,.A e.5.^ w.p.u.9.Q w.Q %.m e.q.Q q.>  .V.N.G                           ",
"                              I x.[ w p e.g.m u.5.C &.>.,.b 0.5.Q e.p.u.q.Q w.^ 5.n p.q.Q y.i T M.@.3                           ",
"                              Y { G 3 p 0.y.m u.5.C &.>.<.Z e.5.~ e.u.u.9.Q w.w.y.m y.y.] s.I G  .G ,                           ",
"                              Y o.{ F p q.y.m u.q.C &.>.q.5.p.5.^ w.u.u.9.Q w.u.i.n t.@.O. .t H o.{ 0                           ",
"                              v.C.B.{ p q.u.m u.5.C &.>.e.u.u.5.:.w.u.u.q.Q w.u.u.m _ T T { t | m. .w                           ",
"                              @.B.B.{ p w.u.m u.5.B &.>.e.u.u.5.Q e.p.p.q.Q q.u.u.n _ / U U t T { O.D                           ",
"                              O.N.N.H p q.u.m u.q.C &.^ e.u.u.5.>.w.g.g.q.Q w.u.u.m u.q.Q ) 8 t I [ 2                           ",
"                              o.f.T q d q.e.m u.q.Z &.>.e.u.e.5.Q e.h.g.q.Q q.p.u.m u.q.Q w.> H o.K 2                           ",
"                              I [ F 7 p :.2.m u.e.5.>.>.u.u.u.5.>.w.h.g.q.Q q.u.p.n u.q.Q q.: k { F ,                           ",
"                               .v.#.L p B *.n u.u.u.>.^ e.u.u.4.~ e.h.g.q.~ w.u.u.M w.>.Q q.: Y x.#.t                           ",
"                              @.V.m.[ d V 1.m p.u.u.,.:.e.u.u.5.^ w.h.g.q.Q w.p.u.m 5.B S w.> { N.@.q                           ",
"                              O.N.| r d 9.u.n u.u.u.,.>.y.u.u.5.>.w.h.g.9.Q w.p.u.m <.B S w.> T v.{ 2                           ",
"                              O.x.I w p q.p.m u.u.u.>.>.e.u.u.5.Q w.h.g.9.Q q.u.u.m w.5.~ w.- T x.I <                           ",
"                              I Y k 3 y >.p.m p.u.u.>.^ u.u.u.<.:.e.u.u.9.Q w.u.p.m e.9.Q 5.> F T D <                           ",
"                              { O.T e - M 5.n u.u.u.,.:.e.u.<.Q V >.e.p.q.Q q.p.p.m w.E M V > G O.| 0                           ",
"                              @.c.[ e - a m c 9.9.9.~ Q 5.Q h f a h ~ 9.>.Q 5.9.9.c E f h f > [ M.@.0                           ",
"                              F D q , $ = - : i > i i i i : = = % = > 6 y p y > 6 u > = % = $ t I t @                           ",
"                                                                                                                                "
};
