/* XPM */
static char *_8921bea15d24367dff89f895f70eebb0onFXddg7JWHe0s1[] = {
/* columns rows colors chars-per-pixel */
"64 32 10 1 ",
"  c None",
". c black",
"X c #306082",
"o c #5E8CDF",
"O c #639BFF",
"+ c #5FCDE4",
"@ c #FAD2AB",
"# c #F6D9BD",
"$ c #86DBED",
"% c white",
/* pixels */
"                                                                ",
"                                                                ",
"                                                                ",
"                                                                ",
"                                                                ",
"                                                                ",
"                                                                ",
"                                                                ",
"             ......                          ......             ",
"            .++++++.                        .++++++.            ",
"           .++++++++.                      .++++++++.           ",
"          .++$$$$$$$.                     .++$$$$$$$.           ",
"          .$$$@@@@@.                      .$$$@@@@@.            ",
"          .$$@##%#%.                      .$$@##%#%.            ",
"          .$$O@@@@@.                      .$$O@@@@@.            ",
"          .$$OOOOOO.                      .$$OOOOOO.            ",
"          .$$oOOOOO.                      .$$oOOOOO.            ",
"          .$$oooOOO.                      .$$oooOOO.            ",
"          .$$ooooOO.                      .$$ooooOO.            ",
"           .$oooooo.                       .$oooooo.            ",
"           .XXooooo.                       .XXoooXX.            ",
"           .XXX..XX.                       .XXX..XX.            ",
"           .XX. .XX.                       .XX. .%%.            ",
"           .%%. .%%.                       .%%.  ..             ",
"            ..   ..                         ..                  ",
"                                                                ",
"                                                                ",
"                                                                ",
"                                                                ",
"                                                                ",
"                                                                ",
"                                                                "
};
