/* XPM */
static char *_f623cf561c74bb5a866223aeb31a039joDcq5nblgcaGB9T[] = {
/* columns rows colors chars-per-pixel */
"64 64 8 1 ",
"  c #807F7E",
". c #7F7D7C",
"X c black",
"o c #81807F",
"O c #1D1C1C",
"+ c #3E3D3C",
"@ c #5B5A59",
"# c #72706F",
/* pixels */
"XXXXXXXXXXXXXXXXXXXXXXXXXXXXXXXXXXXXXXXXXXXXXXXXXXXXXXXXXXXXXXXX",
"XXXXXXXXXXXXXXXXXXXXXXXXXXXXXXXXXXXXXXXXXXXXXXXXXXXXXXXXXXXXXXXX",
"XXXXXXXXXXXXXXXXXXXXXXXXXXXXXXXXXXXXXXXXXXXXXXXXXXXXXXXXXXXXXXXX",
"XXXXXXXXXXXXXXXXXXXXXXXXXXXXXXXXXXXXXXXXXXXXXXXXXXXXXXXXXXXXXXXX",
"XXXXXXXXXXXXXXXXXXXXXXXXXXXXXXXXXXXXXXXXXXXXXXXXXXXXXXXXXXXXXXXX",
"XXXXXXXXXXXXXXXXXXXXXXXXXXXXXXXXXXXXXXXXXXXXXXXXXXXXXXXXXXXXXXXX",
"XXXXXXXXXXXXXXXXXXXXXXXXXXXXXXXXXXXXXXXXXXXXXXXXXXXXXXXXXXXXXXXX",
"XXXXXXXXXXXXXXXXXXXXXXXXXXXXXXXXXXXXXXXXXXXXXXXXXXXXXXXXXXXXXXXX",
"XXXXXXXXXXXXXXXXXXXXXXXXXXXXXXXXXXXXXXXXXXXXXXXXXXXXXXXXXXXXXXXX",
"XXXXXXXXXXXXXXXXXXXXXXXXXXXXXXXXXXXXXXXXXXXXXXXXXXXXXXXXXXXXXXXX",
"XXXXXXXXXXXXXXXXXXXXXXXXXXXXXXXXXXXXXXXXXXXXXXXXXXXXXXXXXXXXXXXX",
"XXXXXXXXXXXXXXXXXXXXXXXXXXXXXXXXXXXXXXXXXXXXXXXXXXXXXXXXXXXXXXXX",
"XXXXXXXXXXXXXXXXXXXXXXXXXXXXXXXXXXXXXXXXXXXXXXXXXXXXXXXXXXXXXXXX",
"XXXXXX@o o  .. o  ..    ...   ...   ... o ... o  .. o  .. o o+XX",
"XXXXXX@ooo  . oo  .  o   . o   . o   . oo  . oo  . oo  . oooo+XX",
"XXXXXX@o.   .     .     .  .  .  .   . .   . .   . .   . .##.+XX",
"XXO@##. ...   ...   ...   ...   ...    ..    ..    ...   #OOOXXX",
"XXO.ooo  . oo  . oo  . oo  . oo  . oo  . oo   . oo  . ooo#XXXXXX",
"XXO#.          .     .     .     .     .     .          o#OXXXXX",
"XXXO@ .  ....  ....  ....  ....  ....  ....  .....  ......@OXXXX",
"XXXX@ooo  . oo  . oo  .. oo  . oo  . oo  . oo  . oo  . oooo+XXXX",
"XXXX@o    .     .     .     .                  .     .    .+XXXX",
"XXO@#  ....  ..... ..... ..... ..... ..... .....  ....   #OXXXXX",
"XXO.ooo  . oo  . oo  . oo  . oo  . ooo .  oo  . oo  . ooo#XXXXXX",
"XXO.                 .     .     .     .     .          o#XXXXXX",
"XXX+O+. . ..... ...... ..... ..... ..... ..... ..... .....@@+XXX",
"XXXXXO. oo  . oo  . oo  . oo  .  o  .  oo .. oo  . oo  . ooo#OXX",
"XXXXXO.                 .     .     .     .               oo#XXX",
"X++++@.... ..... ..... .....  ....  ..... ..... ..... ..... .@OX",
"X@oooo..  o  .  oo .. oo .. oo  . oo  . oo  . oo  .  o  .  ooo+X",
"X#oooo .     .     .                              .     .    o+X",
"X++++@.. .............................. ..... ..... .........+OX",
"XXXXXO. oo  . oo  .  o  .  o  .  oo .. oo .. oo  . oo  . ooo#XXX",
"XXXXXO.           .     .     .     .     .              ooo#OXX",
"XXX+++.... ..... ..... .. ..... ..... ... . ... ..... .. #@++XXX",
"XXO.ooo  .  o  .  o  .  o  .  o  .. o  .. oo .. oo  . ooo#XXXXXX",
"XXO.o    .     .     .     .     .     .      . o   .   o#XXXXXX",
"XXO@#.. ..... ..... .....  ....  ....  ....  ..... ..... #+OXXXX",
"XXXX@o o  .. o  .. o  .. o  ..  o ..  o  .  o  .  o  .  o  +XXXX",
"XXXX@oo   .  o  .  o  .  o   . o   . o   . o   . o   . o  o+XXXX",
"XXXO#o..... ... . ... . ... ........ ..... ..... ..... . .@OXXXX",
"XXO..   ..  o  .  o  .  o  .. o  .. o  .. o  ..    ..  o #XXXXXX",
"XXO.ooo  . o   . o   . oo  . oo  . oo  .  o   . o   . o o#XXXXXX",
"XXO@@@# .. .. .. ..  . ..  . ..  . ..  . ..  . ... .  .. #OOOXXX",
"XXXXXX@o    ..    ..    ..    ...   ...    .. o  .. o  ......+XX",
"XXXXXX@ooo  . oo  .  o   . o   . o   . o   . oo  . oo  . oo o+XX",
"XXOOOO@o.   . .   . ..  .. .  .. .  .. .   . .   . .   . .  o+XX",
"X@####...    ..    ..    ...   ...   ...   ...   ...    ..   .+X",
"X@oooo . oo  . oo  . oo   . o   . o   . o   . oo  . oo  . oo o+X",
"X@o    .     .     .     .    o     o   .     .   .     .    o+X",
"XXXXXXXXXXXXXXXXXXXXXXXXXXXXXXXXXXXXXXXXXXXXXXXXXXXXXXXXXXXXXXXX",
"XXXXXXXXXXXXXXXXXXXXXXXXXXXXXXXXXXXXXXXXXXXXXXXXXXXXXXXXXXXXXXXX",
"XXXXXXXXXXXXXXXXXXXXXXXXXXXXXXXXXXXXXXXXXXXXXXXXXXXXXXXXXXXXXXXX",
"XXXXXXXXXXXXXXXXXXXXXXXXXXXXXXXXXXXXXXXXXXXXXXXXXXXXXXXXXXXXXXXX",
"XXXXXXXXXXXXXXXXXXXXXXXXXXXXXXXXXXXXXXXXXXXXXXXXXXXXXXXXXXXXXXXX",
"XXXXXXXXXXXXXXXXXXXXXXXXXXXXXXXXXXXXXXXXXXXXXXXXXXXXXXXXXXXXXXXX",
"XXXXXXXXXXXXXXXXXXXXXXXXXXXXXXXXXXXXXXXXXXXXXXXXXXXXXXXXXXXXXXXX",
"XXXXXXXXXXXXXXXXXXXXXXXXXXXXXXXXXXXXXXXXXXXXXXXXXXXXXXXXXXXXXXXX",
"XXXXXXXXXXXXXXXXXXXXXXXXXXXXXXXXXXXXXXXXXXXXXXXXXXXXXXXXXXXXXXXX",
"XXXXXXXXXXXXXXXXXXXXXXXXXXXXXXXXXXXXXXXXXXXXXXXXXXXXXXXXXXXXXXXX",
"XXXXXXXXXXXXXXXXXXXXXXXXXXXXXXXXXXXXXXXXXXXXXXXXXXXXXXXXXXXXXXXX",
"XXXXXXXXXXXXXXXXXXXXXXXXXXXXXXXXXXXXXXXXXXXXXXXXXXXXXXXXXXXXXXXX",
"XXXXXXXXXXXXXXXXXXXXXXXXXXXXXXXXXXXXXXXXXXXXXXXXXXXXXXXXXXXXXXXX",
"XXXXXXXXXXXXXXXXXXXXXXXXXXXXXXXXXXXXXXXXXXXXXXXXXXXXXXXXXXXXXXXX"
};
